# xmcd
#
# Track frame offsets:
#	150
#	12482
#	48545
#	59311
#	68085
#	69800
#	124268
#	135956
#	172477
#	180178
#	198467
#	210771
#	237040
#	258941
#	287951
#
# Disc length: 4119 seconds
# Revision: 0
# Processed by: cddbd v1.5.2PL0 Copyright (c) Steve Scherf et al.
# Submitted via: dBpowerAMP V12.0
#
DISCID=d410150f
DTITLE=Andrew Liles - The Flesh Creeping Gonzoid and Other Imaginary Creatures-Volume 5
DYEAR=2011
DGENRE=Industrial
TTITLE0=DPF
TTITLE1=Keys Microwave A Small Burgled Room
TTITLE2=Crossed Threshold
TTITLE3=Ethereel Vocoder Mix
TTITLE4=Exit Within Exit
TTITLE5=Just 17
TTITLE6=Liver Sack
TTITLE7=Onethousandninehundredandsixtynine
TTITLE8=Popron Popcorn
TTITLE9=Ruby Red Lips Above And Below
TTITLE10=Skobniki (Zavo Mix)
TTITLE11=Spectrum Colour Signifier
TTITLE12=Taxi! ICU
TTITLE13=The Mind As An Engine (Original Mix)
TTITLE14=Alternate Unworlds Apart 1
EXTD=
EXTT0=
EXTT1=
EXTT2=
EXTT3=
EXTT4=
EXTT5=
EXTT6=
EXTT7=
EXTT8=
EXTT9=
EXTT10=
EXTT11=
EXTT12=
EXTT13=
EXTT14=
PLAYORDER=
